<svg width="20" height="20" viewBox="0 0 20 20" fill="none" xmlns="http://www.w3.org/2000/svg">
<path d="M15.8333 11.3217V8.33335C15.8333 5.65252 14.0125 3.39419 11.5458 2.71502C11.3017 2.10002 10.705 1.66669 10 1.66669C9.295 1.66669 8.69833 2.10002 8.45417 2.71502C5.9875 3.39502 4.16667 5.65252 4.16667 8.33335V11.3217L2.74417 12.7442C2.5875 12.9 2.5 13.1117 2.5 13.3334V15C2.5 15.4609 2.8725 15.8334 3.33333 15.8334H16.6667C17.1275 15.8334 17.5 15.4609 17.5 15V13.3334C17.5 13.1117 17.4125 12.9 17.2558 12.7442L15.8333 11.3217ZM15.8333 14.1667H4.16667V13.6784L5.58917 12.2559C5.74583 12.1 5.83333 11.8884 5.83333 11.6667V8.33335C5.83333 6.03585 7.7025 4.16669 10 4.16669C12.2975 4.16669 14.1667 6.03585 14.1667 8.33335V11.6667C14.1667 11.8884 14.2542 12.1 14.4108 12.2559L15.8333 13.6784V14.1667ZM10 18.3334C11.0925 18.3334 12.0058 17.6384 12.3483 16.6667H7.65167C7.99417 17.6384 8.9075 18.3334 10 18.3334Z" fill="#9397AD"/>
</svg>
