<svg width="20" height="20" viewBox="0 0 20 20" fill="none" xmlns="http://www.w3.org/2000/svg">
<path d="M4.1665 15V18.1383L5.429 17.3808L9.39734 15H13.3332C14.2523 15 14.9998 14.2525 14.9998 13.3333V6.66667C14.9998 5.7475 14.2523 5 13.3332 5H3.33317C2.414 5 1.6665 5.7475 1.6665 6.66667V13.3333C1.6665 14.2525 2.414 15 3.33317 15H4.1665ZM3.33317 6.66667H13.3332V13.3333H8.93567L5.83317 15.195V13.3333H3.33317V6.66667Z" fill="#9397AD"/>
<path d="M16.6667 1.66669H15.8333H14.165H6.66667C5.7475 1.66669 5 2.41419 5 3.33335H13.8217H15C15.9192 3.33335 16.6667 4.08085 16.6667 5.00002V6.17835V10V11.6667C17.5858 11.6667 18.3333 10.9192 18.3333 10V5.83335V4.16669V3.33335C18.3333 2.41419 17.5858 1.66669 16.6667 1.66669Z" fill="#9397AD"/>
</svg>
